<svg width="298" height="157" viewBox="0 0 298 157" fill="none" xmlns="http://www.w3.org/2000/svg">
<path d="M4.55114 70H15.6222V55.1193L21.0682 48.4716L35.4119 70H48.6562L28.9943 41.0824L48.4261 17.6364H35.1562L16.3125 40.7244H15.6222V17.6364H4.55114V70ZM54.1918 70H89.5781V60.8722H65.2628V48.3693H87.6605V39.2415H65.2628V26.7642H89.4759V17.6364H54.1918V70ZM98.2777 70H133.664V60.8722H109.349V48.3693H131.746V39.2415H109.349V26.7642H133.562V17.6364H98.2777V70ZM186.162 17.6364H175.142V50.5682H174.682L152.08 17.6364H142.364V70H153.435V37.0426H153.818L176.599 70H186.162V17.6364ZM204.335 70L208.221 58.0597H227.116L231.002 70H242.866L224.815 17.6364H210.548L192.471 70H204.335ZM211.033 49.4176L217.477 29.6023H217.886L224.329 49.4176H211.033ZM292.967 17.6364H281.947V50.5682H281.487L258.884 17.6364H249.168V70H260.239V37.0426H260.623L283.404 70H292.967V17.6364Z" fill="black"/>
<path d="M4.55114 140H15.6222V125.119L21.0682 118.472L35.4119 140H48.6562L28.9943 111.082L48.4261 87.6364H35.1562L16.3125 110.724H15.6222V87.6364H4.55114V140ZM86.6122 87.6364V121.872C86.6122 127.472 82.0866 130.872 75.8991 130.872C69.7884 130.872 65.2628 127.472 65.2628 121.872V87.6364H54.1918V122.256C54.1918 134.119 63.1918 140.741 75.8991 140.741C88.5554 140.741 97.6065 134.119 97.6065 122.256V87.6364H86.6122ZM115.741 140L119.627 128.06H138.522L142.408 140H154.272L136.221 87.6364H121.954L103.877 140H115.741ZM122.44 119.418L128.883 99.6023H129.292L135.735 119.418H122.44Z" fill="black"/>
<path d="M182.5 140C187.818 140 190.818 136.693 190.818 131.239C190.818 125.818 187.818 122.545 182.739 122.545H177.114V140H182.5ZM179.227 138.125V124.42H182.602C186.693 124.42 188.773 127.011 188.773 131.239C188.773 135.5 186.693 138.125 182.364 138.125H179.227ZM194.364 140H205.034V138.125H196.477V132.193H204.352V130.318H196.477V124.42H204.898V122.545H194.364V140ZM218.253 126.909H220.298C220.205 124.276 217.776 122.307 214.401 122.307C211.06 122.307 208.435 124.25 208.435 127.182C208.435 129.534 210.139 130.932 212.866 131.716L215.014 132.33C216.855 132.841 218.491 133.489 218.491 135.227C218.491 137.136 216.651 138.398 214.23 138.398C212.151 138.398 210.31 137.477 210.139 135.5H207.957C208.162 138.364 210.48 140.307 214.23 140.307C218.253 140.307 220.537 138.091 220.537 135.261C220.537 131.989 217.435 130.932 215.628 130.455L213.855 129.977C212.56 129.636 210.48 128.955 210.48 127.08C210.48 125.409 212.014 124.182 214.332 124.182C216.446 124.182 218.048 125.188 218.253 126.909ZM226.126 122.545H224.012V140H226.126V122.545ZM242.295 128H244.477C243.83 124.625 241 122.307 237.318 122.307C232.844 122.307 229.682 125.75 229.682 131.273C229.682 136.795 232.818 140.239 237.455 140.239C241.614 140.239 244.58 137.469 244.58 133.148V131.273H237.932V133.148H242.534C242.474 136.284 240.412 138.261 237.455 138.261C234.216 138.261 231.727 135.807 231.727 131.273C231.727 126.739 234.216 124.284 237.318 124.284C239.841 124.284 241.554 125.707 242.295 128ZM262.04 122.545H259.961V136.284H259.79L250.245 122.545H248.2V140H250.313V126.295H250.484L259.995 140H262.04V122.545ZM266.27 140H276.94V138.125H268.384V132.193H276.259V130.318H268.384V124.42H276.804V122.545H266.27V140ZM280.614 140H282.727V133.182H286.545C286.699 133.182 286.844 133.182 286.989 133.173L290.67 140H293.125L289.179 132.79C291.403 132.031 292.443 130.216 292.443 127.898C292.443 124.812 290.602 122.545 286.511 122.545H280.614V140ZM282.727 131.273V124.42H286.443C289.273 124.42 290.364 125.801 290.364 127.898C290.364 129.994 289.273 131.273 286.477 131.273H282.727Z" fill="black"/>
<path d="M163.5 105C168.818 105 171.818 101.693 171.818 96.2386C171.818 90.8182 168.818 87.5455 163.739 87.5455H158.114V105H163.5ZM160.227 103.125V89.4205H163.602C167.693 89.4205 169.773 92.0114 169.773 96.2386C169.773 100.5 167.693 103.125 163.364 103.125H160.227ZM175.364 105H186.034V103.125H177.477V97.1932H185.352V95.3182H177.477V89.4205H185.898V87.5455H175.364V105ZM190.423 87.5455H188.207L194.616 105H196.798L203.207 87.5455H200.991L195.81 102.239H195.605L190.423 87.5455ZM205.926 105H216.597V103.125H208.04V97.1932H215.915V95.3182H208.04V89.4205H216.46V87.5455H205.926V105ZM220.27 105H230.497V103.125H222.384V87.5455H220.27V105ZM247.817 96.2727C247.817 90.75 244.579 87.3068 240.113 87.3068C235.647 87.3068 232.408 90.75 232.408 96.2727C232.408 101.795 235.647 105.239 240.113 105.239C244.579 105.239 247.817 101.795 247.817 96.2727ZM245.772 96.2727C245.772 100.807 243.283 103.261 240.113 103.261C236.942 103.261 234.454 100.807 234.454 96.2727C234.454 91.7386 236.942 89.2841 240.113 89.2841C243.283 89.2841 245.772 91.7386 245.772 96.2727ZM251.371 105H253.485V98.625H257.303C261.369 98.625 263.201 96.1534 263.201 93.0682C263.201 89.983 261.369 87.5455 257.269 87.5455H251.371V105ZM253.485 96.75V89.4205H257.201C260.039 89.4205 261.121 90.9716 261.121 93.0682C261.121 95.1648 260.039 96.75 257.235 96.75H253.485ZM266.606 105H277.276V103.125H268.719V97.1932H276.594V95.3182H268.719V89.4205H277.14V87.5455H266.606V105ZM280.95 105H283.063V98.1818H286.881C287.035 98.1818 287.18 98.1818 287.325 98.1733L291.006 105H293.461L289.515 97.7898C291.739 97.0312 292.779 95.2159 292.779 92.8977C292.779 89.8125 290.938 87.5455 286.847 87.5455H280.95V105ZM283.063 96.2727V89.4205H286.779C289.609 89.4205 290.7 90.8011 290.7 92.8977C290.7 94.9943 289.609 96.2727 286.813 96.2727H283.063Z" fill="black"/>
<line x1="167" y1="113" x2="294" y2="113" stroke="black" stroke-width="2"/>
</svg>
