<?xml version="1.0" standalone="no"?>
<!DOCTYPE svg PUBLIC "-//W3C//DTD SVG 20010904//EN"
 "http://www.w3.org/TR/2001/REC-SVG-20010904/DTD/svg10.dtd">
<svg version="1.0" xmlns="http://www.w3.org/2000/svg"
 width="255.000000pt" height="255.000000pt" viewBox="0 0 255.000000 255.000000"
 preserveAspectRatio="xMidYMid meet">
<metadata>
Created by potrace 1.11, written by Peter Selinger 2001-2013
</metadata>
<g transform="translate(0.000000,255.000000) scale(0.100000,-0.100000)"
fill="#000000" stroke="none">
<path d="M957 2501 c-126 -135 -208 -320 -338 -760 -124 -417 -159 -503 -238
-580 -40 -39 -51 -56 -51 -81 0 -23 5 -33 20 -37 11 -3 20 -14 20 -24 0 -38
-31 -150 -85 -304 -31 -88 -65 -196 -75 -240 -24 -99 -29 -207 -11 -228 9 -12
10 -25 2 -53 -9 -31 -8 -39 7 -50 24 -19 32 -17 33 9 0 12 5 31 10 42 6 14 7
8 3 -21 -4 -34 -2 -43 13 -48 14 -6 15 -9 4 -16 -12 -7 -12 -13 -2 -38 7 -17
10 -36 6 -41 -4 -7 10 -11 39 -11 25 0 46 -4 46 -10 0 -5 5 -10 11 -10 7 0 9
10 7 25 -3 14 -1 28 3 31 5 3 9 -6 9 -20 0 -34 8 -32 49 9 34 34 35 34 49 14
13 -19 15 -19 32 -4 10 9 30 43 45 76 24 54 28 59 40 43 11 -16 17 -4 48 97
66 210 107 363 129 474 11 61 26 121 33 135 11 21 145 117 166 119 10 1 59
-116 144 -339 93 -244 141 -357 201 -467 60 -111 81 -126 44 -33 -25 63 -25
70 -1 70 11 0 21 6 24 13 5 14 1 19 61 -70 78 -115 100 -105 46 22 -40 92 -39
102 7 70 43 -29 79 -32 104 -10 15 15 17 13 23 -19 4 -18 16 -46 27 -60 19
-25 21 -25 45 -9 40 26 56 65 42 103 -9 28 -8 34 6 42 22 13 20 41 -8 96 -13
26 -40 88 -59 137 -43 111 -78 173 -94 168 -16 -6 -17 9 -2 24 8 8 5 13 -9 18
-17 5 -22 16 -24 53 -2 38 -7 47 -20 46 -12 -1 -18 5 -18 18 0 14 5 18 16 14
40 -15 -8 115 -111 304 -19 36 -38 81 -41 100 -5 33 -2 38 68 99 40 35 174
145 298 244 310 250 390 317 500 421 86 82 96 95 102 136 3 25 9 56 13 70 5
21 1 27 -26 39 -26 11 -29 15 -16 23 13 7 37 64 37 90 0 4 -10 8 -22 10 -18 2
-22 9 -20 31 3 33 -4 34 -28 5 -10 -13 -22 -19 -27 -14 -4 5 -2 11 5 13 6 3
12 8 12 13 0 14 -67 -6 -129 -39 -33 -17 -63 -31 -67 -31 -3 0 13 19 37 42 37
36 41 43 25 46 -10 2 -37 -1 -61 -8 -23 -6 -53 -10 -66 -8 -18 2 -25 -2 -27
-17 -2 -12 -47 -53 -105 -97 -56 -42 -196 -161 -312 -263 -115 -103 -259 -225
-318 -272 -62 -49 -104 -89 -97 -93 7 -4 3 -13 -10 -25 -20 -18 -20 -18 -20 7
0 13 11 35 25 48 20 18 25 33 25 69 0 25 5 64 11 86 17 61 111 299 121 306 10
6 20 88 22 168 1 41 -2 45 -35 63 -23 12 -58 19 -98 19 -55 1 -67 5 -97 31
-19 17 -50 34 -69 38 -32 7 -37 5 -78 -39z"/>
</g>
</svg>
